<?xml version="1.0" encoding="utf-8"?>
<!-- Generator: Adobe Illustrator 28.2.0, SVG Export Plug-In . SVG Version: 6.00 Build 0)  -->
<svg version="1.1" id="Layer_1" xmlns="http://www.w3.org/2000/svg" xmlns:xlink="http://www.w3.org/1999/xlink" x="0px" y="0px"
	 viewBox="0 0 1600 1200" style="enable-background:new 0 0 1600 1200;" xml:space="preserve">
<style type="text/css">
	.st0{fill:#926FE1;}
</style>
<g>
	<g>
		<path class="st0" d="M1036.2,100h-147v175.4c0,11.1-13.8,16.3-21.1,7.8L710.8,100H582.2v207.8h99.7c5.3,0,8,6.5,4.2,10.2
			L563.8,440.4v75.2h147V340.2c0-11.1,13.8-16.3,21.1-7.8l157.4,183.3h128.6V307.8h-99.7c-5.3,0-8-6.5-4.2-10.2l122.4-122.4V100z"/>
	</g>
	<g>
		<g>
			<path d="M349.6,1032.1h-55.5v-6.9h55.5V1032.1z M325.7,1099H318v-73.7h7.7V1099z"/>
			<path d="M404.7,1099H397v-73.7h7.7V1099z M442.1,1032.1h-44.2v-6.9h44.2V1032.1z M437.5,1064.8h-39.6v-6.9h39.6V1064.8z
				 M442.6,1099h-44.7v-6.9h44.7V1099z"/>
			<path d="M524.3,1100c-5.7,0-10.7-1.1-15-3.2c-4.3-2.2-7.9-5-10.8-8.7c-2.9-3.6-5-7.7-6.4-12.2c-1.4-4.5-2.1-9.1-2.1-13.8
				c0-4.7,0.7-9.3,2.1-13.9c1.4-4.5,3.6-8.6,6.4-12.2c2.9-3.6,6.4-6.5,10.8-8.6c4.3-2.1,9.3-3.2,15-3.2c4.6,0,8.6,0.6,12,1.8
				c3.4,1.2,6.2,2.8,8.4,4.7c2.3,1.9,4.1,3.9,5.5,6.1c1.4,2.1,2.4,4.2,3.1,6.1c0.7,1.9,1.3,4.1,1.7,6.5h-7.8
				c-0.5-2.4-1.2-4.5-2.1-6.3s-2.1-3.6-3.8-5.4c-1.7-1.8-3.9-3.3-6.7-4.5c-2.8-1.2-6.2-1.8-10.4-1.8c-4.5,0-8.3,0.9-11.7,2.6
				c-3.3,1.7-6.1,4.1-8.3,7c-2.2,3-3.9,6.2-5,9.9c-1.1,3.6-1.6,7.4-1.6,11.2c0,3.8,0.6,7.5,1.6,11.2c1.1,3.7,2.8,7,5,9.9
				c2.2,3,5,5.3,8.3,7c3.3,1.7,7.2,2.6,11.7,2.6c4.2,0,7.7-0.6,10.4-1.8c2.8-1.2,5-2.7,6.7-4.5c1.7-1.8,3-3.5,3.8-5.3
				s1.6-3.9,2.1-6.4h7.8c-0.5,2.5-1,4.6-1.7,6.6c-0.7,1.9-1.7,4-3.1,6.1c-1.4,2.1-3.2,4.2-5.5,6.1c-2.3,1.9-5.1,3.5-8.4,4.7
				C533,1099.4,529,1100,524.3,1100z"/>
			<path d="M611.6,1099H604v-73.7h7.7V1099z M649.7,1064.6h-43.6v-7h43.6V1064.6z M656.3,1099h-7.7v-73.7h7.7V1099z"/>
			<path d="M715.4,1099h-7.7v-73.7h7.1l43.8,63.9l-2.7,0.8v-64.7h7.7v73.7h-7.1l-43.8-63.9l2.7-0.9V1099z"/>
			<path d="M848.4,1100c-5.8,0-10.9-1.1-15.3-3.2c-4.4-2.2-8.1-5-11.1-8.7c-3-3.6-5.2-7.7-6.7-12.2c-1.5-4.5-2.2-9.1-2.2-13.9
				c0-4.7,0.7-9.3,2.2-13.8c1.5-4.5,3.7-8.5,6.7-12.1c3-3.6,6.6-6.5,11.1-8.6c4.4-2.2,9.5-3.2,15.3-3.2c5.8,0,10.9,1.1,15.2,3.2
				c4.4,2.2,8.1,5,11,8.6c3,3.6,5.2,7.6,6.7,12.1c1.5,4.5,2.3,9.1,2.3,13.8c0,4.7-0.8,9.3-2.3,13.9c-1.5,4.5-3.8,8.6-6.7,12.2
				c-3,3.6-6.6,6.5-11,8.7C859.2,1098.9,854.2,1100,848.4,1100z M848.4,1092.8c4.1,0,7.8-0.8,11.1-2.3c3.4-1.5,6.2-3.7,8.7-6.5
				c2.4-2.8,4.3-6.1,5.6-9.8c1.3-3.8,2-7.8,2-12.2c0-4.3-0.7-8.3-2-12.1c-1.3-3.7-3.2-7-5.6-9.8c-2.4-2.8-5.3-5-8.7-6.5
				c-3.4-1.5-7.1-2.3-11.1-2.3c-4.1,0-7.9,0.8-11.2,2.3c-3.4,1.5-6.2,3.7-8.7,6.5c-2.4,2.8-4.3,6-5.6,9.8s-2,7.7-2,12.1
				c0,4.4,0.7,8.5,2,12.2c1.3,3.8,3.2,7,5.6,9.8c2.4,2.8,5.3,5,8.7,6.5C840.5,1092.1,844.3,1092.8,848.4,1092.8z"/>
			<path d="M940,1099h-7.7v-73.7h7.7V1099z M978.6,1099h-45.1v-6.9h45.1V1099z"/>
			<path d="M1054.2,1100c-5.8,0-10.9-1.1-15.3-3.2c-4.4-2.2-8.1-5-11.1-8.7s-5.2-7.7-6.7-12.2c-1.5-4.5-2.2-9.1-2.2-13.9
				c0-4.7,0.7-9.3,2.2-13.8c1.5-4.5,3.7-8.5,6.7-12.1c3-3.6,6.6-6.5,11.1-8.6c4.4-2.2,9.5-3.2,15.3-3.2c5.8,0,10.9,1.1,15.2,3.2
				c4.4,2.2,8.1,5,11,8.6c3,3.6,5.2,7.6,6.7,12.1c1.5,4.5,2.3,9.1,2.3,13.8c0,4.7-0.8,9.3-2.3,13.9c-1.5,4.5-3.8,8.6-6.7,12.2
				c-3,3.6-6.6,6.5-11,8.7C1065.1,1098.9,1060,1100,1054.2,1100z M1054.2,1092.8c4.1,0,7.8-0.8,11.1-2.3c3.4-1.5,6.2-3.7,8.7-6.5
				c2.4-2.8,4.3-6.1,5.6-9.8c1.3-3.8,2-7.8,2-12.2c0-4.3-0.7-8.3-2-12.1c-1.3-3.7-3.2-7-5.6-9.8c-2.4-2.8-5.3-5-8.7-6.5
				c-3.4-1.5-7.1-2.3-11.1-2.3c-4.1,0-7.9,0.8-11.2,2.3c-3.4,1.5-6.2,3.7-8.7,6.5c-2.4,2.8-4.3,6-5.6,9.8s-2,7.7-2,12.1
				c0,4.4,0.7,8.5,2,12.2c1.3,3.8,3.2,7,5.6,9.8c2.4,2.8,5.3,5,8.7,6.5C1046.4,1092.1,1050.1,1092.8,1054.2,1092.8z"/>
			<path d="M1170.5,1100c-5.8,0-10.9-1.1-15.3-3.2c-4.4-2.1-8-5-10.9-8.6c-2.9-3.6-5-7.7-6.4-12.2c-1.4-4.5-2.1-9.1-2.1-13.8
				c0-4.7,0.7-9.3,2.1-13.9c1.4-4.5,3.6-8.6,6.5-12.2c2.9-3.6,6.6-6.5,11-8.7c4.4-2.2,9.5-3.2,15.4-3.2c4.6,0,8.5,0.6,11.9,1.7
				c3.3,1.2,6.1,2.7,8.4,4.5c2.3,1.8,4.1,3.8,5.4,5.8c1.4,2.1,2.4,4,3.1,5.8c0.7,1.8,1.3,3.9,1.8,6.2h-7.8c-0.6-2.3-1.3-4.2-2.2-6
				c-0.9-1.7-2.1-3.4-3.8-5.1c-1.7-1.7-3.9-3.1-6.6-4.2c-2.7-1.1-6.1-1.7-10.3-1.7c-4.6,0-8.6,0.9-12,2.6c-3.4,1.8-6.3,4.1-8.5,7
				c-2.3,2.9-4,6.2-5.1,9.9c-1.1,3.7-1.7,7.4-1.7,11.2c0,3.9,0.6,7.7,1.7,11.4c1.1,3.7,2.8,7,5.1,9.9c2.3,2.9,5.1,5.2,8.5,7
				c3.4,1.7,7.3,2.6,11.8,2.6c5.2,0,9.6-1.1,13.2-3.2c3.6-2.1,6.3-5.1,8.3-8.9c1.9-3.8,2.9-8.3,2.9-13.5v-2.5l3.2,3h-26.4v-6.5h30.6
				v5c0,7-1.3,13.1-4,18.1c-2.7,5-6.4,8.9-11.1,11.6C1182.3,1098.7,1176.8,1100,1170.5,1100z"/>
			<path d="M1279.5,1099h-7.6v-26.7l-26.5-47h8.5l23.3,41.9h-3l23.3-41.9h8.4l-26.4,47V1099z"/>
		</g>
	</g>
	<g>
		<path d="M606.3,671.5h-68.2c-38.4,0-69.6,31.1-69.6,69.6v15.2H512v-23.9c0-9.6,7.8-17.4,17.4-17.4H615c9.6,0,17.4,7.8,17.4,17.4
			v76.9c-11.4-19.9-32.8-33.4-57.4-33.4h-47.4c-36.5,0-66.1,29.6-66.1,66.1v30.2c0,36.5,29.6,66.1,66.1,66.1H575
			c24.6,0,46-13.5,57.4-33.4v26.4h43.5V741.1C675.9,702.7,644.7,671.5,606.3,671.5z M615,894.8h-92.6c-9.6,0-17.4-7.8-17.4-17.4
			v-40.6c0-9.6,7.8-17.4,17.4-17.4H615c9.6,0,17.3,7.7,17.4,17.3v40.9C632.3,887,624.6,894.8,615,894.8z"/>
		<path d="M1128.6,671.5h-68.2c-38.4,0-69.6,31.1-69.6,69.6v15.2h43.5v-23.9c0-9.6,7.8-17.4,17.4-17.4h85.6
			c9.6,0,17.4,7.8,17.4,17.4v76.9c-11.4-19.9-32.8-33.4-57.4-33.4H1050c-36.5,0-66.1,29.6-66.1,66.1v30.2
			c0,36.5,29.6,66.1,66.1,66.1h47.4c24.6,0,46-13.5,57.4-33.4v26.4h43.5V741.1C1198.2,702.7,1167.1,671.5,1128.6,671.5z
			 M1137.3,894.8h-92.6c-9.6,0-17.4-7.8-17.4-17.4v-40.6c0-9.6,7.8-17.4,17.4-17.4h92.6c9.6,0,17.3,7.7,17.4,17.3v40.9
			C1154.7,887,1146.9,894.8,1137.3,894.8z"/>
		<path d="M345.1,664.3h-36.6c-30.8,0-57,19.5-67.1,46.8v-39.7h-44.7v259.8h44.7h0V744.8c0-19.7,16-35.8,35.8-35.8h58.9
			c19.8,0,35.8,16,35.8,35.8v186.5h44.7V735.9C416.6,696.4,384.6,664.3,345.1,664.3z"/>
		<path d="M1403.3,716.8v-45.3h-62.9V586H1295v85.6h-44.8v45.3h44.8v142c0,40,32.5,72.5,72.5,72.5h26.7V886h-28.5
			c-14,0-25.4-11.4-25.4-25.4V716.8H1403.3z"/>
		<polygon points="836.3,888.5 757.8,671.5 707.1,671.5 802.3,934.9 870.3,934.9 965.5,671.5 914.7,671.5 		"/>
	</g>
</g>
</svg>
